<mxfile host="app.diagrams.net" modified="2021-07-20T13:46:47.782Z" agent="5.0 (Windows NT 10.0; Win64; x64) AppleWebKit/537.36 (KHTML, like Gecko) Chrome/91.0.4472.124 Safari/537.36" etag="sEQYkyVJ1SfyGbwEGsq5" version="14.8.6" type="github">
  <diagram id="pHfxRp4kW7cIAQ2Ifzvs" name="Page-1">
    <mxGraphModel dx="1384" dy="760" grid="1" gridSize="10" guides="1" tooltips="1" connect="1" arrows="1" fold="1" page="1" pageScale="1" pageWidth="827" pageHeight="1169" math="0" shadow="0">
      <root>
        <mxCell id="0" />
        <mxCell id="1" parent="0" />
        <mxCell id="zrx-r3L6M9512_G_y4bq-14" value="&lt;font style=&quot;font-size: 16px&quot;&gt;Z&lt;/font&gt;" style="rounded=0;whiteSpace=wrap;html=1;" parent="1" vertex="1">
          <mxGeometry x="130" y="180" width="30" height="40" as="geometry" />
        </mxCell>
        <mxCell id="zrx-r3L6M9512_G_y4bq-23" value="&lt;font style=&quot;font-size: 16px&quot;&gt;D&lt;/font&gt;" style="rounded=0;whiteSpace=wrap;html=1;" parent="1" vertex="1">
          <mxGeometry x="160" y="180" width="30" height="40" as="geometry" />
        </mxCell>
        <mxCell id="zrx-r3L6M9512_G_y4bq-24" value="&lt;font style=&quot;font-size: 16px&quot;&gt;P&lt;/font&gt;" style="rounded=0;whiteSpace=wrap;html=1;" parent="1" vertex="1">
          <mxGeometry x="190" y="180" width="30" height="40" as="geometry" />
        </mxCell>
        <mxCell id="zrx-r3L6M9512_G_y4bq-25" value="&lt;font style=&quot;font-size: 16px&quot;&gt;S&lt;/font&gt;" style="rounded=0;whiteSpace=wrap;html=1;" parent="1" vertex="1">
          <mxGeometry x="220" y="180" width="30" height="40" as="geometry" />
        </mxCell>
        <mxCell id="zrx-r3L6M9512_G_y4bq-26" value="&lt;font style=&quot;font-size: 16px&quot;&gt;P&lt;/font&gt;" style="rounded=0;whiteSpace=wrap;html=1;" parent="1" vertex="1">
          <mxGeometry x="250" y="180" width="30" height="40" as="geometry" />
        </mxCell>
        <mxCell id="zrx-r3L6M9512_G_y4bq-27" value="&lt;font style=&quot;font-size: 16px&quot;&gt;R&lt;/font&gt;" style="rounded=0;whiteSpace=wrap;html=1;" parent="1" vertex="1">
          <mxGeometry x="280" y="180" width="30" height="40" as="geometry" />
        </mxCell>
        <mxCell id="zrx-r3L6M9512_G_y4bq-28" value="&lt;font style=&quot;font-size: 16px&quot;&gt;S&lt;/font&gt;" style="rounded=0;whiteSpace=wrap;html=1;" parent="1" vertex="1">
          <mxGeometry x="310" y="180" width="30" height="40" as="geometry" />
        </mxCell>
        <mxCell id="zrx-r3L6M9512_G_y4bq-30" value="&lt;font style=&quot;font-size: 16px&quot;&gt;_&lt;/font&gt;" style="rounded=0;whiteSpace=wrap;html=1;" parent="1" vertex="1">
          <mxGeometry x="340" y="180" width="30" height="40" as="geometry" />
        </mxCell>
        <mxCell id="zrx-r3L6M9512_G_y4bq-31" value="&lt;font style=&quot;font-size: 16px&quot;&gt;W&lt;/font&gt;" style="rounded=0;whiteSpace=wrap;html=1;" parent="1" vertex="1">
          <mxGeometry x="370" y="180" width="30" height="40" as="geometry" />
        </mxCell>
        <mxCell id="zrx-r3L6M9512_G_y4bq-32" value="&lt;font style=&quot;font-size: 16px&quot;&gt;B&lt;/font&gt;" style="rounded=0;whiteSpace=wrap;html=1;" parent="1" vertex="1">
          <mxGeometry x="400" y="180" width="30" height="40" as="geometry" />
        </mxCell>
        <mxCell id="zrx-r3L6M9512_G_y4bq-33" value="&lt;font style=&quot;font-size: 16px&quot;&gt;S&lt;/font&gt;" style="rounded=0;whiteSpace=wrap;html=1;" parent="1" vertex="1">
          <mxGeometry x="430" y="180" width="30" height="40" as="geometry" />
        </mxCell>
        <mxCell id="zrx-r3L6M9512_G_y4bq-34" value="&lt;font style=&quot;font-size: 16px&quot;&gt;E&lt;/font&gt;" style="rounded=0;whiteSpace=wrap;html=1;" parent="1" vertex="1">
          <mxGeometry x="460" y="180" width="30" height="40" as="geometry" />
        </mxCell>
        <mxCell id="zrx-r3L6M9512_G_y4bq-35" value="&lt;font style=&quot;font-size: 16px&quot;&gt;L&lt;/font&gt;" style="rounded=0;whiteSpace=wrap;html=1;" parent="1" vertex="1">
          <mxGeometry x="490" y="180" width="30" height="40" as="geometry" />
        </mxCell>
        <mxCell id="zrx-r3L6M9512_G_y4bq-36" value="&lt;font style=&quot;font-size: 16px&quot;&gt;E&lt;/font&gt;" style="rounded=0;whiteSpace=wrap;html=1;" parent="1" vertex="1">
          <mxGeometry x="520" y="180" width="30" height="40" as="geometry" />
        </mxCell>
        <mxCell id="zrx-r3L6M9512_G_y4bq-37" value="&lt;font style=&quot;font-size: 16px&quot;&gt;M&lt;/font&gt;" style="rounded=0;whiteSpace=wrap;html=1;" parent="1" vertex="1">
          <mxGeometry x="550" y="180" width="30" height="40" as="geometry" />
        </mxCell>
        <mxCell id="zrx-r3L6M9512_G_y4bq-38" value="&lt;font style=&quot;font-size: 16px&quot;&gt;E&lt;/font&gt;" style="rounded=0;whiteSpace=wrap;html=1;" parent="1" vertex="1">
          <mxGeometry x="580" y="180" width="30" height="40" as="geometry" />
        </mxCell>
        <mxCell id="zrx-r3L6M9512_G_y4bq-39" value="&lt;font style=&quot;font-size: 16px&quot;&gt;N&lt;/font&gt;" style="rounded=0;whiteSpace=wrap;html=1;" parent="1" vertex="1">
          <mxGeometry x="610" y="180" width="30" height="40" as="geometry" />
        </mxCell>
        <mxCell id="zrx-r3L6M9512_G_y4bq-40" value="&lt;font style=&quot;font-size: 16px&quot;&gt;T&lt;/font&gt;" style="rounded=0;whiteSpace=wrap;html=1;" parent="1" vertex="1">
          <mxGeometry x="640" y="180" width="30" height="40" as="geometry" />
        </mxCell>
        <mxCell id="zrx-r3L6M9512_G_y4bq-45" value="" style="edgeStyle=segmentEdgeStyle;endArrow=classic;html=1;" parent="1" edge="1">
          <mxGeometry width="50" height="50" relative="1" as="geometry">
            <mxPoint x="160" y="430" as="sourcePoint" />
            <mxPoint x="140" y="220" as="targetPoint" />
            <Array as="points">
              <mxPoint x="140" y="430" />
            </Array>
          </mxGeometry>
        </mxCell>
        <mxCell id="zrx-r3L6M9512_G_y4bq-46" value="" style="edgeStyle=segmentEdgeStyle;endArrow=classic;html=1;" parent="1" edge="1">
          <mxGeometry width="50" height="50" relative="1" as="geometry">
            <mxPoint x="190" y="410" as="sourcePoint" />
            <mxPoint x="170" y="220" as="targetPoint" />
            <Array as="points">
              <mxPoint x="190" y="410" />
              <mxPoint x="170" y="410" />
            </Array>
          </mxGeometry>
        </mxCell>
        <mxCell id="zrx-r3L6M9512_G_y4bq-47" value="" style="shape=curlyBracket;whiteSpace=wrap;html=1;rounded=1;flipH=1;rotation=90;" parent="1" vertex="1">
          <mxGeometry x="210" y="220" width="20" height="35" as="geometry" />
        </mxCell>
        <mxCell id="zrx-r3L6M9512_G_y4bq-48" value="" style="edgeStyle=segmentEdgeStyle;endArrow=classic;html=1;" parent="1" edge="1">
          <mxGeometry width="50" height="50" relative="1" as="geometry">
            <mxPoint x="240" y="390" as="sourcePoint" />
            <mxPoint x="220" y="240" as="targetPoint" />
            <Array as="points">
              <mxPoint x="240" y="390" />
              <mxPoint x="220" y="390" />
            </Array>
          </mxGeometry>
        </mxCell>
        <mxCell id="zrx-r3L6M9512_G_y4bq-49" value="" style="shape=curlyBracket;whiteSpace=wrap;html=1;rounded=1;flipH=1;rotation=90;" parent="1" vertex="1">
          <mxGeometry x="270" y="220" width="20" height="35" as="geometry" />
        </mxCell>
        <mxCell id="zrx-r3L6M9512_G_y4bq-50" value="" style="edgeStyle=segmentEdgeStyle;endArrow=classic;html=1;" parent="1" edge="1">
          <mxGeometry width="50" height="50" relative="1" as="geometry">
            <mxPoint x="300" y="370" as="sourcePoint" />
            <mxPoint x="280" y="240" as="targetPoint" />
            <Array as="points">
              <mxPoint x="300" y="370" />
              <mxPoint x="280" y="370" />
            </Array>
          </mxGeometry>
        </mxCell>
        <mxCell id="zrx-r3L6M9512_G_y4bq-51" value="" style="edgeStyle=segmentEdgeStyle;endArrow=classic;html=1;" parent="1" edge="1">
          <mxGeometry width="50" height="50" relative="1" as="geometry">
            <mxPoint x="340" y="350" as="sourcePoint" />
            <mxPoint x="320" y="220" as="targetPoint" />
            <Array as="points">
              <mxPoint x="340" y="350" />
              <mxPoint x="320" y="350" />
            </Array>
          </mxGeometry>
        </mxCell>
        <mxCell id="zrx-r3L6M9512_G_y4bq-52" value="" style="shape=curlyBracket;whiteSpace=wrap;html=1;rounded=1;flipH=1;rotation=90;" parent="1" vertex="1">
          <mxGeometry x="508.75" y="98.75" width="20" height="277.5" as="geometry" />
        </mxCell>
        <mxCell id="zrx-r3L6M9512_G_y4bq-54" value="Das SAP vordefinierte Zeichen" style="text;html=1;align=center;verticalAlign=middle;resizable=0;points=[];autosize=1;strokeColor=none;" parent="1" vertex="1">
          <mxGeometry x="160" y="420" width="180" height="20" as="geometry" />
        </mxCell>
        <mxCell id="zrx-r3L6M9512_G_y4bq-55" value="D: Dimension, F: Fact, C: Composite, Q: Query" style="text;html=1;align=center;verticalAlign=middle;resizable=0;points=[];autosize=1;strokeColor=none;" parent="1" vertex="1">
          <mxGeometry x="190" y="400" width="270" height="20" as="geometry" />
        </mxCell>
        <mxCell id="zrx-r3L6M9512_G_y4bq-56" value="SAP Modul" style="text;html=1;align=center;verticalAlign=middle;resizable=0;points=[];autosize=1;strokeColor=none;" parent="1" vertex="1">
          <mxGeometry x="240" y="380" width="80" height="20" as="geometry" />
        </mxCell>
        <mxCell id="zrx-r3L6M9512_G_y4bq-57" value="SAP Applikation" style="text;html=1;align=center;verticalAlign=middle;resizable=0;points=[];autosize=1;strokeColor=none;" parent="1" vertex="1">
          <mxGeometry x="300" y="360" width="100" height="20" as="geometry" />
        </mxCell>
        <mxCell id="zrx-r3L6M9512_G_y4bq-58" value="S: Stammdaten, B: Bewegungsdaten" style="text;html=1;align=center;verticalAlign=middle;resizable=0;points=[];autosize=1;strokeColor=none;" parent="1" vertex="1">
          <mxGeometry x="340" y="340" width="210" height="20" as="geometry" />
        </mxCell>
        <mxCell id="zrx-r3L6M9512_G_y4bq-59" value="CDS View Name" style="text;html=1;align=center;verticalAlign=middle;resizable=0;points=[];autosize=1;strokeColor=none;" parent="1" vertex="1">
          <mxGeometry x="464" y="260" width="110" height="20" as="geometry" />
        </mxCell>
      </root>
    </mxGraphModel>
  </diagram>
</mxfile>
